# MisterZine launch cabinet. Edit in Blockbench (File > Import > OBJ) and export as OBJ.
# The face with material "screen" shows the title shot; other materials colour from cab.mtl.
mtllib cab.mtl
v -0.5 -1.25 0.4
v 0.5 -1.25 0.4
v 0.5 0.65 0.4
v -0.5 0.65 0.4
v 0.5 -1.25 -0.4
v -0.5 -1.25 -0.4
v -0.5 0.65 -0.4
v 0.5 0.65 -0.4
v -0.5 -1.25 -0.4
v -0.5 -1.25 0.4
v -0.5 0.65 0.4
v -0.5 0.65 -0.4
v 0.5 -1.25 0.4
v 0.5 -1.25 -0.4
v 0.5 0.65 -0.4
v 0.5 0.65 0.4
v -0.5 0.65 0.4
v 0.5 0.65 0.4
v 0.5 0.65 -0.4
v -0.5 0.65 -0.4
v -0.5 0.42 0.48
v 0.5 0.42 0.48
v 0.5 0.65 0.48
v -0.5 0.65 0.48
v -0.5 0.65 0.48
v 0.5 0.65 0.48
v 0.5 0.65 0.4
v -0.5 0.65 0.4
v -0.5 0.42 0.4
v 0.5 0.42 0.4
v 0.5 0.42 0.48
v -0.5 0.42 0.48
v -0.5 0.42 0.4
v -0.5 0.42 0.48
v -0.5 0.65 0.48
v -0.5 0.65 0.4
v 0.5 0.42 0.48
v 0.5 0.42 0.4
v 0.5 0.65 0.4
v 0.5 0.65 0.48
v -0.5 -0.55 0.4
v 0.5 -0.55 0.4
v 0.5 -0.45 0.62
v -0.5 -0.45 0.62
v -0.5 -0.45 0.62
v 0.5 -0.45 0.62
v 0.5 -0.38 0.4
v -0.5 -0.38 0.4
v -0.5 -0.55 0.4
v -0.5 -0.45 0.62
v -0.5 -0.38 0.4
v 0.5 -0.45 0.62
v 0.5 -0.55 0.4
v 0.5 -0.38 0.4
v -0.38 -0.285 0.405
v -0.285 -0.285 0.427961
v -0.285 0.285 0.427961
v -0.38 0.285 0.405
v -0.285 -0.285 0.427961
v -0.19 -0.285 0.447426
v -0.19 0.285 0.447426
v -0.285 0.285 0.427961
v -0.19 -0.285 0.447426
v -0.095 -0.285 0.460433
v -0.095 0.285 0.460433
v -0.19 0.285 0.447426
v -0.095 -0.285 0.460433
v 0 -0.285 0.465
v 0 0.285 0.465
v -0.095 0.285 0.460433
v 0 -0.285 0.465
v 0.095 -0.285 0.460433
v 0.095 0.285 0.460433
v 0 0.285 0.465
v 0.095 -0.285 0.460433
v 0.19 -0.285 0.447426
v 0.19 0.285 0.447426
v 0.095 0.285 0.460433
v 0.19 -0.285 0.447426
v 0.285 -0.285 0.427961
v 0.285 0.285 0.427961
v 0.19 0.285 0.447426
v 0.285 -0.285 0.427961
v 0.38 -0.285 0.405
v 0.38 0.285 0.405
v 0.285 0.285 0.427961
vt 0 0
vt 0.125 0
vt 0.125 1
vt 0 1
vt 0.125 0
vt 0.25 0
vt 0.25 1
vt 0.125 1
vt 0.25 0
vt 0.375 0
vt 0.375 1
vt 0.25 1
vt 0.375 0
vt 0.5 0
vt 0.5 1
vt 0.375 1
vt 0.5 0
vt 0.625 0
vt 0.625 1
vt 0.5 1
vt 0.625 0
vt 0.75 0
vt 0.75 1
vt 0.625 1
vt 0.75 0
vt 0.875 0
vt 0.875 1
vt 0.75 1
vt 0.875 0
vt 1 0
vt 1 1
vt 0.875 1
usemtl body
f 1 2 3 4
f 5 6 7 8
f 9 10 11 12
f 13 14 15 16
f 17 18 19 20
usemtl marquee
f 21 22 23 24
usemtl body
f 25 26 27 28
f 29 30 31 32
f 33 34 35 36
f 37 38 39 40
usemtl panel
f 41 42 43 44
f 45 46 47 48
usemtl body
f 49 50 51
f 52 53 54
usemtl screen
f 55/1 56/2 57/3 58/4
f 59/5 60/6 61/7 62/8
f 63/9 64/10 65/11 66/12
f 67/13 68/14 69/15 70/16
f 71/17 72/18 73/19 74/20
f 75/21 76/22 77/23 78/24
f 79/25 80/26 81/27 82/28
f 83/29 84/30 85/31 86/32
